<svg width="25" height="24" viewBox="0 0 25 24" fill="none" xmlns="http://www.w3.org/2000/svg">
<path d="M21.447 8.30545C21.4369 7.54807 21.2951 6.79822 21.028 6.08945C20.7964 5.4916 20.4425 4.94864 19.9892 4.49528C19.5358 4.04191 18.9929 3.6881 18.395 3.45645C17.6953 3.1938 16.9562 3.05179 16.209 3.03645C15.247 2.99345 14.942 2.98145 12.5 2.98145C10.058 2.98145 9.74501 2.98145 8.79001 3.03645C8.04317 3.0519 7.30436 3.19391 6.60501 3.45645C6.00707 3.68793 5.46403 4.04169 5.01064 4.49508C4.55725 4.94847 4.2035 5.4915 3.97201 6.08945C3.70884 6.78858 3.56713 7.52756 3.55301 8.27445C3.51001 9.23745 3.49701 9.54245 3.49701 11.9844C3.49701 14.4264 3.49701 14.7384 3.55301 15.6944C3.56801 16.4424 3.70901 17.1804 3.97201 17.8814C4.20389 18.4792 4.55791 19.022 5.01145 19.4752C5.46499 19.9284 6.00807 20.282 6.60601 20.5134C7.30344 20.7866 8.04238 20.9388 8.79101 20.9634C9.75401 21.0064 10.059 21.0194 12.501 21.0194C14.943 21.0194 15.256 21.0194 16.211 20.9634C16.9582 20.9487 17.6974 20.807 18.397 20.5444C18.9947 20.3125 19.5375 19.9586 19.9909 19.5053C20.4442 19.052 20.7981 18.5091 21.03 17.9114C21.293 17.2114 21.434 16.4734 21.449 15.7244C21.492 14.7624 21.505 14.4574 21.505 12.0144C21.503 9.57245 21.503 9.26245 21.447 8.30545ZM12.494 16.6024C9.94001 16.6024 7.87101 14.5334 7.87101 11.9794C7.87101 9.42545 9.94001 7.35645 12.494 7.35645C13.7201 7.35645 14.896 7.84351 15.763 8.71049C16.6299 9.57747 17.117 10.7533 17.117 11.9794C17.117 13.2055 16.6299 14.3814 15.763 15.2484C14.896 16.1154 13.7201 16.6024 12.494 16.6024ZM17.301 8.26344C17.1594 8.26358 17.0192 8.23578 16.8883 8.18166C16.7575 8.12753 16.6386 8.04813 16.5385 7.948C16.4383 7.84787 16.3589 7.72898 16.3048 7.59813C16.2507 7.46729 16.2229 7.32705 16.223 7.18545C16.223 7.04395 16.2509 6.90383 16.305 6.7731C16.3592 6.64238 16.4385 6.52359 16.5386 6.42354C16.6387 6.32348 16.7574 6.24411 16.8882 6.18997C17.0189 6.13582 17.159 6.10795 17.3005 6.10795C17.442 6.10795 17.5821 6.13582 17.7129 6.18997C17.8436 6.24411 17.9624 6.32348 18.0624 6.42354C18.1625 6.52359 18.2418 6.64238 18.296 6.7731C18.3501 6.90383 18.378 7.04395 18.378 7.18545C18.378 7.78145 17.896 8.26344 17.301 8.26344Z" fill="black" style="fill:black;fill-opacity:1;"/>
<path d="M12.494 14.9816C14.1525 14.9816 15.497 13.6371 15.497 11.9786C15.497 10.3201 14.1525 8.97559 12.494 8.97559C10.8355 8.97559 9.49103 10.3201 9.49103 11.9786C9.49103 13.6371 10.8355 14.9816 12.494 14.9816Z" fill="black" style="fill:black;fill-opacity:1;"/>
</svg>
